<svg width="336" height="177" viewBox="0 0 336 177" fill="none" xmlns="http://www.w3.org/2000/svg">
<path d="M321.939 11H321.249L319.269 12.37V13.26L321.069 12.08V18H321.939V11ZM326.135 18.12C327.825 18.12 328.885 16.68 328.885 14.46C328.885 12.25 327.805 10.86 326.135 10.86C324.445 10.86 323.395 12.25 323.395 14.46C323.395 16.69 324.445 18.12 326.135 18.12ZM326.135 17.34C324.925 17.34 324.305 16.11 324.305 14.46C324.305 12.8 324.935 11.64 326.135 11.64C327.325 11.64 327.975 12.8 327.975 14.46C327.975 16.11 327.345 17.34 326.135 17.34ZM332.708 18.12C334.398 18.12 335.458 16.68 335.458 14.46C335.458 12.25 334.378 10.86 332.708 10.86C331.018 10.86 329.968 12.25 329.968 14.46C329.968 16.69 331.018 18.12 332.708 18.12ZM332.708 17.34C331.498 17.34 330.878 16.11 330.878 14.46C330.878 12.8 331.508 11.64 332.708 11.64C333.898 11.64 334.548 12.8 334.548 14.46C334.548 16.11 333.918 17.34 332.708 17.34Z" fill="white" fill-opacity="0.2"/>
<path d="M327.145 49.12C328.565 49.12 329.635 48.31 329.635 47.12C329.635 46.17 328.905 45.52 328.145 45.39V45.37C328.795 45.2 329.475 44.65 329.475 43.73C329.475 42.53 328.355 41.86 327.145 41.86C325.935 41.86 324.815 42.55 324.815 43.73C324.815 44.66 325.515 45.21 326.155 45.37V45.39C325.415 45.52 324.655 46.18 324.655 47.12C324.655 48.32 325.695 49.12 327.145 49.12ZM327.145 42.59C327.915 42.59 328.605 43.03 328.605 43.79C328.605 44.52 327.985 45.03 327.145 45.03C326.305 45.03 325.685 44.5 325.685 43.79C325.685 43.03 326.375 42.59 327.145 42.59ZM327.145 48.38C326.205 48.38 325.545 47.84 325.545 47.08C325.545 46.34 326.205 45.76 327.145 45.76C328.095 45.76 328.735 46.35 328.735 47.08C328.735 47.85 328.095 48.38 327.145 48.38ZM335.54 46.69C335.54 45.26 334.47 44.34 333.15 44.34C332.53 44.34 332 44.55 331.65 44.85L331.81 42.75H335.25V42H331.13L330.83 45.81H331.59C331.8 45.47 332.32 45.08 333.01 45.08C333.94 45.08 334.63 45.78 334.63 46.71C334.63 47.61 334 48.37 333.02 48.37C332.16 48.37 331.56 47.81 331.46 47.11H330.58C330.71 48.33 331.74 49.12 333.02 49.12C334.47 49.12 335.54 48.1 335.54 46.69Z" fill="white" fill-opacity="0.2"/>
<path d="M329.854 73.89L330.004 73.71V73H325.164V73.75H329.004C327.684 75.43 326.704 77.44 326.534 80H327.444C327.544 77.72 328.374 75.71 329.854 73.89ZM335.54 77.69C335.54 76.26 334.47 75.34 333.15 75.34C332.53 75.34 332 75.55 331.65 75.85L331.81 73.75H335.25V73H331.13L330.83 76.81H331.59C331.8 76.47 332.32 76.08 333.01 76.08C333.94 76.08 334.63 76.78 334.63 77.71C334.63 78.61 334 79.37 333.02 79.37C332.16 79.37 331.56 78.81 331.46 78.11H330.58C330.71 79.33 331.74 80.12 333.02 80.12C334.47 80.12 335.54 79.1 335.54 77.69Z" fill="white" fill-opacity="0.2"/>
<path d="M328.942 108.75C328.942 107.32 327.862 106.5 326.642 106.5C325.812 106.5 325.142 106.95 324.852 107.57C324.912 105.41 325.622 104.59 326.602 104.59C327.352 104.59 327.852 104.97 327.982 105.61H328.862C328.702 104.47 327.782 103.86 326.602 103.86C325.102 103.86 323.962 104.96 323.962 107.98C323.962 110.13 325.082 111.12 326.472 111.12C327.892 111.12 328.942 110.12 328.942 108.75ZM324.962 108.78C324.962 107.83 325.692 107.23 326.482 107.23C327.322 107.23 328.032 107.81 328.032 108.78C328.032 109.7 327.412 110.38 326.482 110.38C325.582 110.38 324.962 109.63 324.962 108.78ZM332.708 111.12C334.398 111.12 335.458 109.68 335.458 107.46C335.458 105.25 334.378 103.86 332.708 103.86C331.018 103.86 329.968 105.25 329.968 107.46C329.968 109.69 331.018 111.12 332.708 111.12ZM332.708 110.34C331.498 110.34 330.878 109.11 330.878 107.46C330.878 105.8 331.508 104.64 332.708 104.64C333.898 104.64 334.548 105.8 334.548 107.46C334.548 109.11 333.918 110.34 332.708 110.34Z" fill="white" fill-opacity="0.2"/>
<path d="M329.911 140.15V139.42H328.821V135H327.731L324.481 139.4V140.15H327.981V142H328.821V140.15H329.911ZM325.391 139.42L327.981 135.9V139.42H325.391ZM335.54 139.69C335.54 138.26 334.47 137.34 333.15 137.34C332.53 137.34 332 137.55 331.65 137.85L331.81 135.75H335.25V135H331.13L330.83 138.81H331.59C331.8 138.47 332.32 138.08 333.01 138.08C333.94 138.08 334.63 138.78 334.63 139.71C334.63 140.61 334 141.37 333.02 141.37C332.16 141.37 331.56 140.81 331.46 140.11H330.58C330.71 141.33 331.74 142.12 333.02 142.12C334.47 142.12 335.54 141.1 335.54 139.69Z" fill="white" fill-opacity="0.2"/>
<path d="M326.378 173.12C327.758 173.12 328.898 172.35 328.898 171.07C328.898 170.08 328.238 169.48 327.398 169.36V169.34C328.148 169.19 328.798 168.67 328.798 167.76C328.798 166.54 327.738 165.86 326.418 165.86C325.078 165.86 324.138 166.65 323.998 167.83H324.868C324.958 167.16 325.498 166.59 326.418 166.59C327.298 166.59 327.908 167.07 327.908 167.78C327.908 168.59 327.158 169.01 326.318 169.01C326.098 169.01 325.808 169 325.598 168.99V169.75C325.858 169.74 326.098 169.73 326.318 169.73C327.308 169.73 327.988 170.19 327.988 171.05C327.988 171.84 327.358 172.38 326.378 172.38C325.398 172.38 324.848 171.76 324.758 171.02H323.868C323.998 172.29 324.988 173.12 326.378 173.12ZM332.708 173.12C334.398 173.12 335.458 171.68 335.458 169.46C335.458 167.25 334.378 165.86 332.708 165.86C331.018 165.86 329.968 167.25 329.968 169.46C329.968 171.69 331.018 173.12 332.708 173.12ZM332.708 172.34C331.498 172.34 330.878 171.11 330.878 169.46C330.878 167.8 331.508 166.64 332.708 166.64C333.898 166.64 334.548 167.8 334.548 169.46C334.548 171.11 333.918 172.34 332.708 172.34Z" fill="white" fill-opacity="0.2"/>
<g clip-path="url(#clip0_1856_24755)">
<path d="M9 18H310" stroke="white" stroke-opacity="0.05" stroke-width="1.46078" stroke-linecap="round" stroke-dasharray="4.38 5.84"/>
<path d="M9 49.8H310" stroke="white" stroke-opacity="0.05" stroke-width="1.46078" stroke-linecap="round" stroke-dasharray="4.38 5.84"/>
<path d="M9 81.6H310" stroke="white" stroke-opacity="0.05" stroke-width="1.46078" stroke-linecap="round" stroke-dasharray="4.38 5.84"/>
<path d="M9 113.4H310" stroke="white" stroke-opacity="0.05" stroke-width="1.46078" stroke-linecap="round" stroke-dasharray="4.38 5.84"/>
<path d="M9 145.2H310" stroke="white" stroke-opacity="0.05" stroke-width="1.46078" stroke-linecap="round" stroke-dasharray="4.38 5.84"/>
</g>
<path d="M305.694 9.84024L303.92 16.4704L301.767 28.1233L300.5 30.3334L298.854 39.1736L295.307 48.6165L292.14 51.4293L290.367 60.0685L287.074 61.274L283.78 62.4795L279.093 64.6895L277.067 67.3014L270.987 69.5115L263.387 73.5297L261.107 76.9453H256.8L253.38 80.5617L249.2 86.3882L241.726 90.2055L239.446 93.4201H237.166L233.113 99.2466L225.893 104.069L224.246 109.493L218.42 113.11L214.24 124.361L210.313 126.772L203.853 137.42L197.266 142.644L194.353 150.881L184.979 152.69L176.873 153.091L173.326 154.096L170.286 152.69L167.373 152.087L164.079 151.685L160.786 152.087L156.352 150.881L152.806 148.872L150.399 148.069L146.979 147.064C144.529 146.817 142.436 146.454 140.519 146.26C138.179 146.024 136.037 145.959 133.046 145.658L122.152 148.069L119.366 149.877L116.024 150.688L110.879 149.073L106.952 148.872L103.152 147.064L99.0987 146.059H83.7719L79.5919 146.863L75.6652 147.868L70.4718 148.872L69.0784 150.688L63.5051 149.475H58.0584L54.005 148.069L51.345 146.26L46.7849 146.662L42.4782 147.868L33.9915 146.26H9.41797V177H310V1.80371L308.734 5.42015L305.694 9.84024Z" fill="url(#paint0_linear_1856_24755)"/>
<path d="M9.41797 146.26H33.9915L42.4782 147.868L46.7849 146.662L51.345 146.26L54.005 148.069L58.0584 149.475H63.5051L69.0784 150.688L70.4718 148.872L75.6652 147.868L79.5919 146.863L83.7719 146.059H99.0987L103.152 147.064L106.952 148.872L110.879 149.073L116.024 150.688L119.366 149.877L122.152 148.069L133.046 145.658C136.037 145.959 138.179 146.024 140.519 146.26C142.436 146.454 144.529 146.817 146.979 147.064L150.399 148.069L152.806 148.872L156.352 150.881L160.786 152.087L164.079 151.685L167.373 152.087L170.286 152.69L173.326 154.096L176.873 153.091L184.979 152.69L194.353 150.881L197.266 142.644L203.853 137.42L210.313 126.772L214.24 124.361L218.42 113.11L224.246 109.493L225.893 104.069L233.113 99.2466L237.166 93.4201H239.446L241.726 90.2055L249.2 86.3882L253.38 80.5617L256.8 76.9453H261.107L263.387 73.5297L270.987 69.5115L277.067 67.3014L279.093 64.6896L283.78 62.4795L287.074 61.274L290.367 60.0685L292.14 51.4293L295.307 48.6165L298.854 39.1736L300.5 30.3334L301.767 28.1233L303.92 16.4704L305.694 9.84024L308.734 5.42015L310 1.80371" stroke="url(#paint1_linear_1856_24755)" stroke-width="2" stroke-linecap="round"/>
<g filter="url(#filter0_d_1856_24755)">
<circle cx="12.5" cy="146.5" r="5.5" fill="white"/>
<circle cx="12.5" cy="146.5" r="4.5" stroke="url(#paint2_linear_1856_24755)" stroke-width="2"/>
</g>
<g filter="url(#filter1_d_1856_24755)">
<circle cx="129.5" cy="145.5" r="5.5" fill="white"/>
<circle cx="129.5" cy="145.5" r="4.5" stroke="url(#paint3_linear_1856_24755)" stroke-width="2"/>
</g>
<g filter="url(#filter2_d_1856_24755)">
<circle cx="165.5" cy="152.5" r="5.5" fill="white"/>
<circle cx="165.5" cy="152.5" r="4.5" stroke="url(#paint4_linear_1856_24755)" stroke-width="2"/>
</g>
<g filter="url(#filter3_d_1856_24755)">
<circle cx="168.5" cy="153.5" r="5.5" fill="white"/>
<circle cx="168.5" cy="153.5" r="4.5" stroke="url(#paint5_linear_1856_24755)" stroke-width="2"/>
</g>
<g filter="url(#filter4_d_1856_24755)">
<circle cx="209.5" cy="128.5" r="5.5" fill="white"/>
<circle cx="209.5" cy="128.5" r="4.5" stroke="url(#paint6_linear_1856_24755)" stroke-width="2"/>
</g>
<g filter="url(#filter5_d_1856_24755)">
<circle cx="218.5" cy="111.5" r="5.5" fill="white"/>
<circle cx="218.5" cy="111.5" r="4.5" stroke="url(#paint7_linear_1856_24755)" stroke-width="2"/>
</g>
<g filter="url(#filter6_d_1856_24755)">
<circle cx="231.5" cy="99.5" r="5.5" fill="white"/>
<circle cx="231.5" cy="99.5" r="4.5" stroke="url(#paint8_linear_1856_24755)" stroke-width="2"/>
</g>
<g filter="url(#filter7_d_1856_24755)">
<circle cx="234.5" cy="95.5" r="5.5" fill="white"/>
<circle cx="234.5" cy="95.5" r="4.5" stroke="url(#paint9_linear_1856_24755)" stroke-width="2"/>
</g>
<g filter="url(#filter8_d_1856_24755)">
<circle cx="247.5" cy="85.5" r="5.5" fill="white"/>
<circle cx="247.5" cy="85.5" r="4.5" stroke="url(#paint10_linear_1856_24755)" stroke-width="2"/>
</g>
<g filter="url(#filter9_d_1856_24755)">
<circle cx="269.5" cy="69.5" r="5.5" fill="white"/>
<circle cx="269.5" cy="69.5" r="4.5" stroke="url(#paint11_linear_1856_24755)" stroke-width="2"/>
</g>
<g filter="url(#filter10_d_1856_24755)">
<circle cx="275.5" cy="67.5" r="5.5" fill="white"/>
<circle cx="275.5" cy="67.5" r="4.5" stroke="url(#paint12_linear_1856_24755)" stroke-width="2"/>
</g>
<g filter="url(#filter11_d_1856_24755)">
<circle cx="277.5" cy="64.5" r="5.5" fill="white"/>
<circle cx="277.5" cy="64.5" r="4.5" stroke="url(#paint13_linear_1856_24755)" stroke-width="2"/>
</g>
<g filter="url(#filter12_d_1856_24755)">
<circle cx="282.5" cy="60.5" r="5.5" fill="white"/>
<circle cx="282.5" cy="60.5" r="4.5" stroke="url(#paint14_linear_1856_24755)" stroke-width="2"/>
</g>
<g filter="url(#filter13_d_1856_24755)">
<circle cx="304.5" cy="16.5" r="5.5" fill="white"/>
<circle cx="304.5" cy="16.5" r="4.5" stroke="url(#paint15_linear_1856_24755)" stroke-width="2"/>
</g>
<defs>
<filter id="filter0_d_1856_24755" x="0" y="138" width="25" height="25" filterUnits="userSpaceOnUse" color-interpolation-filters="sRGB">
<feFlood flood-opacity="0" result="BackgroundImageFix"/>
<feColorMatrix in="SourceAlpha" type="matrix" values="0 0 0 0 0 0 0 0 0 0 0 0 0 0 0 0 0 0 127 0" result="hardAlpha"/>
<feOffset dy="4"/>
<feGaussianBlur stdDeviation="3.5"/>
<feColorMatrix type="matrix" values="0 0 0 0 0.721569 0 0 0 0 0.34902 0 0 0 0 0.254902 0 0 0 0.27 0"/>
<feBlend mode="normal" in2="BackgroundImageFix" result="effect1_dropShadow_1856_24755"/>
<feBlend mode="normal" in="SourceGraphic" in2="effect1_dropShadow_1856_24755" result="shape"/>
</filter>
<filter id="filter1_d_1856_24755" x="117" y="137" width="25" height="25" filterUnits="userSpaceOnUse" color-interpolation-filters="sRGB">
<feFlood flood-opacity="0" result="BackgroundImageFix"/>
<feColorMatrix in="SourceAlpha" type="matrix" values="0 0 0 0 0 0 0 0 0 0 0 0 0 0 0 0 0 0 127 0" result="hardAlpha"/>
<feOffset dy="4"/>
<feGaussianBlur stdDeviation="3.5"/>
<feColorMatrix type="matrix" values="0 0 0 0 0.721569 0 0 0 0 0.34902 0 0 0 0 0.254902 0 0 0 0.27 0"/>
<feBlend mode="normal" in2="BackgroundImageFix" result="effect1_dropShadow_1856_24755"/>
<feBlend mode="normal" in="SourceGraphic" in2="effect1_dropShadow_1856_24755" result="shape"/>
</filter>
<filter id="filter2_d_1856_24755" x="153" y="144" width="25" height="25" filterUnits="userSpaceOnUse" color-interpolation-filters="sRGB">
<feFlood flood-opacity="0" result="BackgroundImageFix"/>
<feColorMatrix in="SourceAlpha" type="matrix" values="0 0 0 0 0 0 0 0 0 0 0 0 0 0 0 0 0 0 127 0" result="hardAlpha"/>
<feOffset dy="4"/>
<feGaussianBlur stdDeviation="3.5"/>
<feColorMatrix type="matrix" values="0 0 0 0 0.721569 0 0 0 0 0.34902 0 0 0 0 0.254902 0 0 0 0.27 0"/>
<feBlend mode="normal" in2="BackgroundImageFix" result="effect1_dropShadow_1856_24755"/>
<feBlend mode="normal" in="SourceGraphic" in2="effect1_dropShadow_1856_24755" result="shape"/>
</filter>
<filter id="filter3_d_1856_24755" x="156" y="145" width="25" height="25" filterUnits="userSpaceOnUse" color-interpolation-filters="sRGB">
<feFlood flood-opacity="0" result="BackgroundImageFix"/>
<feColorMatrix in="SourceAlpha" type="matrix" values="0 0 0 0 0 0 0 0 0 0 0 0 0 0 0 0 0 0 127 0" result="hardAlpha"/>
<feOffset dy="4"/>
<feGaussianBlur stdDeviation="3.5"/>
<feColorMatrix type="matrix" values="0 0 0 0 0.721569 0 0 0 0 0.34902 0 0 0 0 0.254902 0 0 0 0.27 0"/>
<feBlend mode="normal" in2="BackgroundImageFix" result="effect1_dropShadow_1856_24755"/>
<feBlend mode="normal" in="SourceGraphic" in2="effect1_dropShadow_1856_24755" result="shape"/>
</filter>
<filter id="filter4_d_1856_24755" x="197" y="120" width="25" height="25" filterUnits="userSpaceOnUse" color-interpolation-filters="sRGB">
<feFlood flood-opacity="0" result="BackgroundImageFix"/>
<feColorMatrix in="SourceAlpha" type="matrix" values="0 0 0 0 0 0 0 0 0 0 0 0 0 0 0 0 0 0 127 0" result="hardAlpha"/>
<feOffset dy="4"/>
<feGaussianBlur stdDeviation="3.5"/>
<feColorMatrix type="matrix" values="0 0 0 0 0.721569 0 0 0 0 0.34902 0 0 0 0 0.254902 0 0 0 0.27 0"/>
<feBlend mode="normal" in2="BackgroundImageFix" result="effect1_dropShadow_1856_24755"/>
<feBlend mode="normal" in="SourceGraphic" in2="effect1_dropShadow_1856_24755" result="shape"/>
</filter>
<filter id="filter5_d_1856_24755" x="206" y="103" width="25" height="25" filterUnits="userSpaceOnUse" color-interpolation-filters="sRGB">
<feFlood flood-opacity="0" result="BackgroundImageFix"/>
<feColorMatrix in="SourceAlpha" type="matrix" values="0 0 0 0 0 0 0 0 0 0 0 0 0 0 0 0 0 0 127 0" result="hardAlpha"/>
<feOffset dy="4"/>
<feGaussianBlur stdDeviation="3.5"/>
<feColorMatrix type="matrix" values="0 0 0 0 0.721569 0 0 0 0 0.34902 0 0 0 0 0.254902 0 0 0 0.27 0"/>
<feBlend mode="normal" in2="BackgroundImageFix" result="effect1_dropShadow_1856_24755"/>
<feBlend mode="normal" in="SourceGraphic" in2="effect1_dropShadow_1856_24755" result="shape"/>
</filter>
<filter id="filter6_d_1856_24755" x="219" y="91" width="25" height="25" filterUnits="userSpaceOnUse" color-interpolation-filters="sRGB">
<feFlood flood-opacity="0" result="BackgroundImageFix"/>
<feColorMatrix in="SourceAlpha" type="matrix" values="0 0 0 0 0 0 0 0 0 0 0 0 0 0 0 0 0 0 127 0" result="hardAlpha"/>
<feOffset dy="4"/>
<feGaussianBlur stdDeviation="3.5"/>
<feColorMatrix type="matrix" values="0 0 0 0 0.721569 0 0 0 0 0.34902 0 0 0 0 0.254902 0 0 0 0.27 0"/>
<feBlend mode="normal" in2="BackgroundImageFix" result="effect1_dropShadow_1856_24755"/>
<feBlend mode="normal" in="SourceGraphic" in2="effect1_dropShadow_1856_24755" result="shape"/>
</filter>
<filter id="filter7_d_1856_24755" x="222" y="87" width="25" height="25" filterUnits="userSpaceOnUse" color-interpolation-filters="sRGB">
<feFlood flood-opacity="0" result="BackgroundImageFix"/>
<feColorMatrix in="SourceAlpha" type="matrix" values="0 0 0 0 0 0 0 0 0 0 0 0 0 0 0 0 0 0 127 0" result="hardAlpha"/>
<feOffset dy="4"/>
<feGaussianBlur stdDeviation="3.5"/>
<feColorMatrix type="matrix" values="0 0 0 0 0.721569 0 0 0 0 0.34902 0 0 0 0 0.254902 0 0 0 0.27 0"/>
<feBlend mode="normal" in2="BackgroundImageFix" result="effect1_dropShadow_1856_24755"/>
<feBlend mode="normal" in="SourceGraphic" in2="effect1_dropShadow_1856_24755" result="shape"/>
</filter>
<filter id="filter8_d_1856_24755" x="235" y="77" width="25" height="25" filterUnits="userSpaceOnUse" color-interpolation-filters="sRGB">
<feFlood flood-opacity="0" result="BackgroundImageFix"/>
<feColorMatrix in="SourceAlpha" type="matrix" values="0 0 0 0 0 0 0 0 0 0 0 0 0 0 0 0 0 0 127 0" result="hardAlpha"/>
<feOffset dy="4"/>
<feGaussianBlur stdDeviation="3.5"/>
<feColorMatrix type="matrix" values="0 0 0 0 0.721569 0 0 0 0 0.34902 0 0 0 0 0.254902 0 0 0 0.27 0"/>
<feBlend mode="normal" in2="BackgroundImageFix" result="effect1_dropShadow_1856_24755"/>
<feBlend mode="normal" in="SourceGraphic" in2="effect1_dropShadow_1856_24755" result="shape"/>
</filter>
<filter id="filter9_d_1856_24755" x="257" y="61" width="25" height="25" filterUnits="userSpaceOnUse" color-interpolation-filters="sRGB">
<feFlood flood-opacity="0" result="BackgroundImageFix"/>
<feColorMatrix in="SourceAlpha" type="matrix" values="0 0 0 0 0 0 0 0 0 0 0 0 0 0 0 0 0 0 127 0" result="hardAlpha"/>
<feOffset dy="4"/>
<feGaussianBlur stdDeviation="3.5"/>
<feColorMatrix type="matrix" values="0 0 0 0 0.721569 0 0 0 0 0.34902 0 0 0 0 0.254902 0 0 0 0.27 0"/>
<feBlend mode="normal" in2="BackgroundImageFix" result="effect1_dropShadow_1856_24755"/>
<feBlend mode="normal" in="SourceGraphic" in2="effect1_dropShadow_1856_24755" result="shape"/>
</filter>
<filter id="filter10_d_1856_24755" x="263" y="59" width="25" height="25" filterUnits="userSpaceOnUse" color-interpolation-filters="sRGB">
<feFlood flood-opacity="0" result="BackgroundImageFix"/>
<feColorMatrix in="SourceAlpha" type="matrix" values="0 0 0 0 0 0 0 0 0 0 0 0 0 0 0 0 0 0 127 0" result="hardAlpha"/>
<feOffset dy="4"/>
<feGaussianBlur stdDeviation="3.5"/>
<feColorMatrix type="matrix" values="0 0 0 0 0.721569 0 0 0 0 0.34902 0 0 0 0 0.254902 0 0 0 0.27 0"/>
<feBlend mode="normal" in2="BackgroundImageFix" result="effect1_dropShadow_1856_24755"/>
<feBlend mode="normal" in="SourceGraphic" in2="effect1_dropShadow_1856_24755" result="shape"/>
</filter>
<filter id="filter11_d_1856_24755" x="265" y="56" width="25" height="25" filterUnits="userSpaceOnUse" color-interpolation-filters="sRGB">
<feFlood flood-opacity="0" result="BackgroundImageFix"/>
<feColorMatrix in="SourceAlpha" type="matrix" values="0 0 0 0 0 0 0 0 0 0 0 0 0 0 0 0 0 0 127 0" result="hardAlpha"/>
<feOffset dy="4"/>
<feGaussianBlur stdDeviation="3.5"/>
<feColorMatrix type="matrix" values="0 0 0 0 0.721569 0 0 0 0 0.34902 0 0 0 0 0.254902 0 0 0 0.27 0"/>
<feBlend mode="normal" in2="BackgroundImageFix" result="effect1_dropShadow_1856_24755"/>
<feBlend mode="normal" in="SourceGraphic" in2="effect1_dropShadow_1856_24755" result="shape"/>
</filter>
<filter id="filter12_d_1856_24755" x="270" y="52" width="25" height="25" filterUnits="userSpaceOnUse" color-interpolation-filters="sRGB">
<feFlood flood-opacity="0" result="BackgroundImageFix"/>
<feColorMatrix in="SourceAlpha" type="matrix" values="0 0 0 0 0 0 0 0 0 0 0 0 0 0 0 0 0 0 127 0" result="hardAlpha"/>
<feOffset dy="4"/>
<feGaussianBlur stdDeviation="3.5"/>
<feColorMatrix type="matrix" values="0 0 0 0 0.721569 0 0 0 0 0.34902 0 0 0 0 0.254902 0 0 0 0.27 0"/>
<feBlend mode="normal" in2="BackgroundImageFix" result="effect1_dropShadow_1856_24755"/>
<feBlend mode="normal" in="SourceGraphic" in2="effect1_dropShadow_1856_24755" result="shape"/>
</filter>
<filter id="filter13_d_1856_24755" x="292" y="8" width="25" height="25" filterUnits="userSpaceOnUse" color-interpolation-filters="sRGB">
<feFlood flood-opacity="0" result="BackgroundImageFix"/>
<feColorMatrix in="SourceAlpha" type="matrix" values="0 0 0 0 0 0 0 0 0 0 0 0 0 0 0 0 0 0 127 0" result="hardAlpha"/>
<feOffset dy="4"/>
<feGaussianBlur stdDeviation="3.5"/>
<feColorMatrix type="matrix" values="0 0 0 0 0.721569 0 0 0 0 0.34902 0 0 0 0 0.254902 0 0 0 0.27 0"/>
<feBlend mode="normal" in2="BackgroundImageFix" result="effect1_dropShadow_1856_24755"/>
<feBlend mode="normal" in="SourceGraphic" in2="effect1_dropShadow_1856_24755" result="shape"/>
</filter>
<linearGradient id="paint0_linear_1856_24755" x1="16.3943" y1="148.05" x2="309.748" y2="147.84" gradientUnits="userSpaceOnUse">
<stop stop-color="#FFD24B" stop-opacity="0.05"/>
<stop offset="1" stop-color="#B85941" stop-opacity="0.05"/>
</linearGradient>
<linearGradient id="paint1_linear_1856_24755" x1="165.341" y1="130.011" x2="290.923" y2="130.011" gradientUnits="userSpaceOnUse">
<stop stop-color="#FFD24B"/>
<stop offset="1" stop-color="#B85941"/>
</linearGradient>
<linearGradient id="paint2_linear_1856_24755" x1="6.94527" y1="149.715" x2="16.5674" y2="149.715" gradientUnits="userSpaceOnUse">
<stop stop-color="#FFD24B"/>
<stop offset="1" stop-color="#B85941"/>
</linearGradient>
<linearGradient id="paint3_linear_1856_24755" x1="123.945" y1="148.715" x2="133.567" y2="148.715" gradientUnits="userSpaceOnUse">
<stop stop-color="#FFD24B"/>
<stop offset="1" stop-color="#B85941"/>
</linearGradient>
<linearGradient id="paint4_linear_1856_24755" x1="159.945" y1="155.715" x2="169.567" y2="155.715" gradientUnits="userSpaceOnUse">
<stop stop-color="#FFD24B"/>
<stop offset="1" stop-color="#B85941"/>
</linearGradient>
<linearGradient id="paint5_linear_1856_24755" x1="162.945" y1="156.715" x2="172.567" y2="156.715" gradientUnits="userSpaceOnUse">
<stop stop-color="#FFD24B"/>
<stop offset="1" stop-color="#B85941"/>
</linearGradient>
<linearGradient id="paint6_linear_1856_24755" x1="203.945" y1="131.715" x2="213.567" y2="131.715" gradientUnits="userSpaceOnUse">
<stop stop-color="#FFD24B"/>
<stop offset="1" stop-color="#B85941"/>
</linearGradient>
<linearGradient id="paint7_linear_1856_24755" x1="212.945" y1="114.715" x2="222.567" y2="114.715" gradientUnits="userSpaceOnUse">
<stop stop-color="#FFD24B"/>
<stop offset="1" stop-color="#B85941"/>
</linearGradient>
<linearGradient id="paint8_linear_1856_24755" x1="225.945" y1="102.715" x2="235.567" y2="102.715" gradientUnits="userSpaceOnUse">
<stop stop-color="#FFD24B"/>
<stop offset="1" stop-color="#B85941"/>
</linearGradient>
<linearGradient id="paint9_linear_1856_24755" x1="228.945" y1="98.7148" x2="238.567" y2="98.7148" gradientUnits="userSpaceOnUse">
<stop stop-color="#FFD24B"/>
<stop offset="1" stop-color="#B85941"/>
</linearGradient>
<linearGradient id="paint10_linear_1856_24755" x1="241.945" y1="88.7148" x2="251.567" y2="88.7148" gradientUnits="userSpaceOnUse">
<stop stop-color="#FFD24B"/>
<stop offset="1" stop-color="#B85941"/>
</linearGradient>
<linearGradient id="paint11_linear_1856_24755" x1="263.945" y1="72.7148" x2="273.567" y2="72.7148" gradientUnits="userSpaceOnUse">
<stop stop-color="#FFD24B"/>
<stop offset="1" stop-color="#B85941"/>
</linearGradient>
<linearGradient id="paint12_linear_1856_24755" x1="269.945" y1="70.7148" x2="279.567" y2="70.7148" gradientUnits="userSpaceOnUse">
<stop stop-color="#FFD24B"/>
<stop offset="1" stop-color="#B85941"/>
</linearGradient>
<linearGradient id="paint13_linear_1856_24755" x1="271.945" y1="67.7148" x2="281.567" y2="67.7148" gradientUnits="userSpaceOnUse">
<stop stop-color="#FFD24B"/>
<stop offset="1" stop-color="#B85941"/>
</linearGradient>
<linearGradient id="paint14_linear_1856_24755" x1="276.945" y1="63.7148" x2="286.567" y2="63.7148" gradientUnits="userSpaceOnUse">
<stop stop-color="#FFD24B"/>
<stop offset="1" stop-color="#B85941"/>
</linearGradient>
<linearGradient id="paint15_linear_1856_24755" x1="298.945" y1="19.7148" x2="308.567" y2="19.7148" gradientUnits="userSpaceOnUse">
<stop stop-color="#FFD24B"/>
<stop offset="1" stop-color="#B85941"/>
</linearGradient>
<clipPath id="clip0_1856_24755">
<rect width="301" height="159" fill="white" transform="translate(9 18)"/>
</clipPath>
</defs>
</svg>
