<svg width="88" height="88" viewBox="0 0 88 88" fill="none" xmlns="http://www.w3.org/2000/svg">
<circle cx="44.0367" cy="44.0377" r="32.807" transform="rotate(-180 44.0367 44.0377)" fill="url(#paint0_linear_1856_20228)"/>
<g clip-path="url(#clip0_1856_20228)">
<path d="M53.957 44.062L33.957 44.042" stroke="white" stroke-width="1.80634"/>
<path d="M35.7858 44.043L38.2458 41.583C38.6358 41.193 38.6358 40.563 38.2458 40.173C37.8558 39.783 37.2258 39.783 36.8358 40.173L33.6558 43.343C33.2658 43.733 33.2658 44.363 33.6558 44.753L36.8358 47.923C37.2258 48.313 37.8558 48.313 38.2458 47.923C38.6358 47.533 38.6358 46.903 38.2458 46.513L35.7858 44.043ZM52.1258 44.043L49.6658 46.503C49.2758 46.893 49.2758 47.523 49.6658 47.913C50.0558 48.303 50.6858 48.303 51.0758 47.913L54.2558 44.743C54.6458 44.353 54.6458 43.723 54.2558 43.333L51.0858 40.163C50.6958 39.773 50.0658 39.773 49.6758 40.163C49.2858 40.553 49.2858 41.183 49.6758 41.573L52.1258 44.043Z" fill="white"/>
</g>
<circle cx="44" cy="44" r="43.3803" transform="rotate(-180 44 44)" stroke="url(#paint1_angular_1856_20228)" stroke-width="1.23944"/>
<defs>
<linearGradient id="paint0_linear_1856_20228" x1="44.0367" y1="11.2307" x2="44.0367" y2="76.8447" gradientUnits="userSpaceOnUse">
<stop stop-color="#FFD24B"/>
<stop offset="1" stop-color="#B85941"/>
</linearGradient>
<radialGradient id="paint1_angular_1856_20228" cx="0" cy="0" r="1" gradientUnits="userSpaceOnUse" gradientTransform="translate(44 44) rotate(90) scale(44)">
<stop offset="0.497763" stop-color="#FFD24B"/>
<stop offset="0.998149" stop-color="#B85941"/>
</radialGradient>
<clipPath id="clip0_1856_20228">
<rect width="24" height="24" fill="white" transform="translate(31.957 56.043) rotate(-90)"/>
</clipPath>
</defs>
</svg>
